<svg width="388" height="183" viewBox="0 0 388 183" fill="none" xmlns="http://www.w3.org/2000/svg">
<path d="M387.682 3.17157C387.776 2.91219 387.643 2.62511 387.384 2.53036L383.157 0.986356C382.897 0.891609 382.61 1.02507 382.516 1.28445C382.421 1.54383 382.554 1.8309 382.814 1.92565L386.571 3.2981L385.198 7.05528C385.104 7.31466 385.237 7.60173 385.496 7.69648C385.756 7.79123 386.043 7.65777 386.138 7.39839L387.682 3.17157ZM1 182.547L1.21078 183.001L387.423 3.45341L387.212 3.00001L387.001 2.54661L0.789218 182.094L1 182.547Z" fill="white"/>
<path d="M387.682 3.17157C387.776 2.91219 387.643 2.62511 387.384 2.53036L383.157 0.986356C382.897 0.891609 382.61 1.02507 382.516 1.28445C382.421 1.54383 382.554 1.8309 382.814 1.92565L386.571 3.2981L385.198 7.05528C385.104 7.31466 385.237 7.60173 385.496 7.69648C385.756 7.79123 386.043 7.65777 386.138 7.39839L387.682 3.17157ZM1 182.547L1.21078 183.001L387.423 3.45341L387.212 3.00001L387.001 2.54661L0.789218 182.094L1 182.547Z" fill="url(#paint0_linear_2021_104)"/>
<defs>
<linearGradient id="paint0_linear_2021_104" x1="269.937" y1="57.5202" x2="270.357" y2="58.4249" gradientUnits="userSpaceOnUse">
<stop stop-color="#06DF73"/>
<stop offset="1" stop-color="#00A651"/>
</linearGradient>
</defs>
</svg>
